<svg id="Layer_1" data-name="Layer 1" xmlns="http://www.w3.org/2000/svg" viewBox="0 0 567.25 125.15"><defs><style>.cls-1{fill:#009a44;}</style></defs><title>logo_swappa_nav</title><path class="cls-1" d="M400.45,33.7q27.87,0,27.88,28.48v9.35q0,28.47-27.88,28.47-10.79,0-17.69-4.43v30.81h-18.4V35.56h12.17L380,40.3Q387.32,33.7,400.45,33.7Zm9.47,36.81V63.14q0-6.24-3.63-9.51t-9.74-3.26q-6.35,0-10.07,3.38t-3.72,9.93V70q0,6.54,3.75,9.89t10,3.36q6.12,0,9.74-3.27T409.92,70.51Z" transform="translate(-0.35 -1.23)"/><path class="cls-1" d="M470.41,33.7q27.87,0,27.87,28.48v9.35q0,28.47-27.87,28.47-10.8,0-17.69-4.43v30.81h-18.4V35.56h12.17l3.41,4.74Q457.28,33.7,470.41,33.7Zm9.47,36.81V63.14q0-6.24-3.63-9.51t-9.74-3.26q-6.36,0-10.07,3.38t-3.72,9.93V70q0,6.54,3.75,9.89t10,3.36q6.12,0,9.74-3.27T479.88,70.51Z" transform="translate(-0.35 -1.23)"/><path class="cls-1" d="M555.44,35.56h12.17V98.15H555.44l-3.3-4.8Q544.66,100,531.28,100q-27.64,0-27.64-28.47V62.18q0-28.49,27.64-28.48,13.37,0,20.86,6.6Zm-20,47.72q6.23,0,10-3.36T549.2,70V63.68q0-6.54-3.68-9.93t-10.1-3.38q-6.12,0-9.75,3.26t-3.62,9.51v7.37q0,6.24,3.62,9.5T535.42,83.28Z" transform="translate(-0.35 -1.23)"/><path class="cls-1" d="M199.26,56.72a31.58,31.58,0,0,0-14.06-8.15,169.43,169.43,0,0,0-16.58-3.81,94.83,94.83,0,0,1-14.06-3.45q-5.75-2-5.75-5.51,0-4.44,4.71-6.95t12-2.52q8,0,13.36,3.11c2.9,1.7,4.6,3.74,5.13,6.12h19.14a24.86,24.86,0,0,0-9.25-18.76q-9.31-7.68-28-7.68t-27.43,7.71a24.17,24.17,0,0,0-8.84,19,21.09,21.09,0,0,0,3.14,11.69,20.35,20.35,0,0,0,8.07,7.31,56.68,56.68,0,0,0,10.91,4.05,105.44,105.44,0,0,0,12,2.46q6,.87,10.94,2a23.62,23.62,0,0,1,8,3.2A6.39,6.39,0,0,1,185.86,72q0,5.4-5.4,8.09a27.62,27.62,0,0,1-12.53,2.7,30.88,30.88,0,0,1-15-3.45q-6.33-3.45-6.33-8.6v-.6h-19q0,13.13,10.67,21.49T167.33,100q17.92,0,27.82-8T205,71.77Q205,62.53,199.26,56.72Z" transform="translate(-0.35 -1.23)"/><path class="cls-1" d="M346.2,35.56h12.17V98.15H346.2l-3.3-4.8Q335.42,100,322,100q-27.65,0-27.64-28.47V62.18q0-28.49,27.64-28.48,13.36,0,20.86,6.6Zm-20,47.72q6.22,0,10-3.36T340,70V63.68q0-6.54-3.68-9.93t-10.1-3.38q-6.12,0-9.75,3.26t-3.62,9.51v7.37q0,6.24,3.62,9.5T326.18,83.28Z" transform="translate(-0.35 -1.23)"/><path class="cls-1" d="M274.57,35.53h18.82L278,98.12H257.9l-9.59-28.36-9.59,28.36H218.45L203.11,35.53h18.82l8.45,40.77,10.43-40.77h14.87L266.11,76.3Z" transform="translate(-0.35 -1.23)"/><path class="cls-1" d="M50.38,14.53c.4,3.6-1,5.39-4.53,6-6.33,1-17.18,4.22-24.62,13.87C10.7,48.05,11.84,61.16,13.46,67.75a5.3,5.3,0,0,1-3.16,6.42h0A5.34,5.34,0,0,1,2.75,70.7,54.57,54.57,0,0,1,42.93,1.46c3.92-.87,6.09.75,6.53,4.75ZM99.56,74.22c3.68,1.61,6.17.55,7.37-3.28A54.59,54.59,0,0,0,67.07,1.52a5.35,5.35,0,0,0-6.79,4.8h0a5.32,5.32,0,0,0,4,5.95c6.51,1.89,18.44,7.46,25,23.42,4.64,11.26,2,22.24-.3,28.25-1.28,3.39-.4,5.46,2.91,6.91ZM15.61,83.6c-3.23,2.38-3.56,5.07-.84,8a54.57,54.57,0,0,0,80.05.18,5.34,5.34,0,0,0-.77-8.27h0a5.3,5.3,0,0,0-7.14.47C82,88.7,71.23,96.25,54.12,94,42.05,92.35,33.88,84.54,29.8,79.58c-2.3-2.81-4.52-3.08-7.44-.94ZM38.52,43.77A10.91,10.91,0,1,0,49.43,54.68,10.92,10.92,0,0,0,38.52,43.77Zm32.72,0a10.91,10.91,0,1,0,10.9,10.91A10.91,10.91,0,0,0,71.24,43.77Z" transform="translate(-0.35 -1.23)"/></svg>