<?xml version="1.0" encoding="utf-8"?>
<!-- Generator: Adobe Illustrator 19.2.0, SVG Export Plug-In . SVG Version: 6.00 Build 0)  -->
<svg version="1.1" id="Layer_1" xmlns="http://www.w3.org/2000/svg" xmlns:xlink="http://www.w3.org/1999/xlink" x="0px" y="0px"
	 viewBox="0 0 128 40" style="enable-background:new 0 0 128 40;" xml:space="preserve">
<style type="text/css">
	.st0{fill:#FFFFFF;}
</style>
<path class="st0" d="M87.5,15.8c3.7,0,5.6,1.9,5.6,5.7v1.9c0,3.8-1.9,5.7-5.6,5.7c-1.4,0-2.6-0.3-3.5-0.9v6.2h-3.7V16.2h2.4l0.7,0.9
	C84.4,16.3,85.8,15.8,87.5,15.8z M89.4,23.2v-1.5c0-0.8-0.2-1.5-0.7-1.9s-1.1-0.7-1.9-0.7s-1.5,0.2-2,0.7s-0.7,1.1-0.7,2v1.3
	c0,0.9,0.2,1.5,0.7,2c0.5,0.4,1.2,0.7,2,0.7s1.5-0.2,1.9-0.7C89.2,24.7,89.4,24,89.4,23.2z M101.5,15.8c3.7,0,5.6,1.9,5.6,5.7v1.9
	c0,3.8-1.9,5.7-5.6,5.7c-1.4,0-2.6-0.3-3.5-0.9v6.2h-3.7V16.2h2.4l0.7,0.9C98.4,16.3,99.8,15.8,101.5,15.8z M103.4,23.2v-1.5
	c0-0.8-0.2-1.5-0.7-1.9s-1.1-0.7-1.9-0.7s-1.5,0.2-2,0.7s-0.7,1.1-0.7,2v1.3c0,0.9,0.2,1.5,0.7,2c0.5,0.4,1.2,0.7,2,0.7
	s1.5-0.2,1.9-0.7C103.2,24.7,103.4,24,103.4,23.2z M118.5,16.2h2.4v12.5h-2.4l-0.7-1c-1,0.9-2.4,1.3-4.2,1.3c-3.7,0-5.5-1.9-5.5-5.7
	v-1.9c0-3.8,1.8-5.7,5.5-5.7c1.8,0,3.2,0.4,4.2,1.3L118.5,16.2z M114.5,25.7c0.8,0,1.5-0.2,2-0.7c0.5-0.4,0.8-1.1,0.8-2v-1.3
	c0-0.9-0.2-1.5-0.7-2s-1.2-0.7-2-0.7s-1.5,0.2-1.9,0.7c-0.5,0.4-0.7,1.1-0.7,1.9v1.5c0,0.8,0.2,1.5,0.7,1.9
	C113.1,25.5,113.7,25.7,114.5,25.7z M47.3,20.4c-0.8-0.8-1.7-1.3-2.8-1.6s-2.2-0.6-3.3-0.8s-2-0.4-2.8-0.7c-0.8-0.3-1.2-0.6-1.2-1.1
	c0-0.6,0.3-1.1,0.9-1.4c0.6-0.3,1.4-0.5,2.4-0.5c1.1,0,2,0.2,2.7,0.6c0.6,0.3,0.9,0.7,1,1.2H48c-0.1-1.5-0.7-2.8-1.8-3.8
	c-1.2-1-3.1-1.5-5.6-1.5s-4.3,0.5-5.5,1.5s-1.8,2.3-1.8,3.8c0,0.9,0.2,1.7,0.6,2.3s1,1.1,1.6,1.5c0.7,0.3,1.4,0.6,2.2,0.8
	s1.6,0.4,2.4,0.5c0.8,0.1,1.5,0.2,2.2,0.4c0.7,0.1,1.2,0.4,1.6,0.6s0.6,0.6,0.6,1.1c0,0.7-0.4,1.3-1.1,1.6c-0.7,0.4-1.6,0.5-2.5,0.5
	c-1.2,0-2.2-0.2-3-0.7s-1.3-1-1.3-1.7v-0.1H33c0,1.8,0.7,3.2,2.1,4.3c1.4,1.1,3.4,1.7,5.8,1.7s4.2-0.5,5.6-1.6c1.3-1.1,2-2.4,2-4
	C48.5,22.2,48.1,21.2,47.3,20.4z M76.7,16.2h2.4v12.5h-2.4l-0.7-1c-1,0.9-2.4,1.3-4.2,1.3c-3.7,0-5.5-1.9-5.5-5.7v-1.9
	c0-3.8,1.8-5.7,5.5-5.7c1.8,0,3.2,0.4,4.2,1.3L76.7,16.2z M72.7,25.7c0.8,0,1.5-0.2,2-0.7c0.5-0.4,0.8-1.1,0.8-2v-1.3
	c0-0.9-0.2-1.5-0.7-2s-1.2-0.7-2-0.7s-1.5,0.2-1.9,0.7c-0.5,0.4-0.7,1.1-0.7,1.9v1.5c0,0.8,0.2,1.5,0.7,1.9
	C71.2,25.5,71.9,25.7,72.7,25.7z"/>
<path class="st0" d="M62.4,16.2h3.8l-3.1,12.5h-4l-2-5.7l-1.9,5.7h-4.1L48,16.2h3.8l1.7,8.2l2.1-8.2h3l2.1,8.2
	C60.7,24.4,62.4,16.2,62.4,16.2z"/>
<g>
	<path class="st0" d="M17.5,12c0.1,0.7-0.2,1.1-0.9,1.2c-1.3,0.2-3.4,0.8-4.9,2.8c-2.1,2.7-1.9,5.4-1.6,6.7c0.1,0.6-0.1,1.1-0.6,1.3
		c-0.6,0.3-1.3,0-1.5-0.7c-0.3-1-0.5-2.1-0.5-3.2c0-5.2,3.6-9.6,8.5-10.6c0.8-0.2,1.2,0.2,1.3,0.9C17.3,10.4,17.5,12,17.5,12z
		 M27.4,23.9c0.7,0.3,1.2,0.1,1.5-0.7c1.5-4.8-0.5-10.1-5-12.7c-1-0.6-2-1-3-1.2c-0.7-0.2-1.3,0.3-1.4,1c-0.1,0.5,0.2,1,0.8,1.2
		c1.3,0.4,3.7,1.5,5,4.7c0.9,2.3,0.4,4.4-0.1,5.7c-0.3,0.7-0.1,1.1,0.6,1.4C25.8,23.3,27.4,23.9,27.4,23.9z M10.6,25.8
		c-0.6,0.5-0.7,1-0.2,1.6c3.4,3.7,9,4.7,13.5,2.1c1-0.6,1.8-1.2,2.5-2c0.5-0.5,0.4-1.3-0.2-1.7c-0.4-0.3-1-0.3-1.4,0.1
		c-1,0.9-3.1,2.4-6.6,2c-2.4-0.3-4-1.9-4.9-2.9c-0.5-0.6-0.9-0.6-1.5-0.2C11.8,24.8,10.6,25.8,10.6,25.8z M15.2,17.8
		c-1.2,0-2.2,1-2.2,2.2s1,2.2,2.2,2.2s2.2-1,2.2-2.2S16.4,17.8,15.2,17.8z M21.7,17.8c-1.2,0-2.2,1-2.2,2.2s1,2.2,2.2,2.2
		s2.2-1,2.2-2.2S22.9,17.8,21.7,17.8z"/>
</g>
</svg>
